<?xml version="1.0" encoding="utf-8"?>
<!-- Generator: Adobe Illustrator 23.0.4, SVG Export Plug-In . SVG Version: 6.00 Build 0)  -->


<svg width="19" height="16" viewBox="0 0 19 16" fill="none" xmlns="http://www.w3.org/2000/svg">
<path fill-rule="evenodd" clip-rule="evenodd" d="M2.08905 2.62829C2.22687 2.35577 2.51027 2.16667 2.83357 2.16667H16.1669C16.4902 2.16667 16.7736 2.35577 16.9114 2.62829L9.50023 7.81612L2.08905 2.62829ZM0.333609 2.98555C0.333474 2.99377 0.33346 3.00199 0.333568 3.01021V13C0.333568 14.3769 1.45666 15.5 2.83357 15.5H16.1669C17.5438 15.5 18.6669 14.3769 18.6669 13V3.0103C18.667 3.00202 18.667 2.99372 18.6669 2.98543C18.659 1.61518 17.5389 0.5 16.1669 0.5H2.83357C1.46148 0.5 0.341435 1.61525 0.333609 2.98555ZM17.0002 4.60055V13C17.0002 13.4564 16.6233 13.8333 16.1669 13.8333H2.83357C2.37714 13.8333 2.00023 13.4564 2.00023 13V4.60055L9.02235 9.51603C9.30928 9.71688 9.69119 9.71688 9.97812 9.51603L17.0002 4.60055Z" fill="black"/>
</svg>

