<svg width="20" height="21" viewBox="0 0 20 21" fill="none" xmlns="http://www.w3.org/2000/svg">
<path fill-rule="evenodd" clip-rule="evenodd" d="M3.5 9.66667C3.5 6.53705 6.03705 4 9.16667 4C12.2963 4 14.8333 6.53705 14.8333 9.66667C14.8333 11.1903 14.232 12.5736 13.2537 13.5919C13.2241 13.6154 13.1956 13.6409 13.1682 13.6682C13.1409 13.6956 13.1154 13.7241 13.0919 13.7537C12.0736 14.732 10.6903 15.3333 9.16667 15.3333C6.03705 15.3333 3.5 12.7963 3.5 9.66667ZM13.8347 15.7489C12.5419 16.7426 10.9233 17.3333 9.16667 17.3333C4.93248 17.3333 1.5 13.9009 1.5 9.66667C1.5 5.43248 4.93248 2 9.16667 2C13.4009 2 16.8333 5.43248 16.8333 9.66667C16.8333 11.4233 16.2426 13.0419 15.2489 14.3347L18.2074 17.2932C18.598 17.6837 18.598 18.3169 18.2074 18.7074C17.8169 19.098 17.1837 19.098 16.7932 18.7074L13.8347 15.7489Z" fill="#808A8D"/>
</svg>
