<?xml version="1.0" encoding="utf-8"?>
<!-- Generator: Adobe Illustrator 23.0.4, SVG Export Plug-In . SVG Version: 6.00 Build 0)  -->
<svg version="1.1" id="Layer_1" xmlns="http://www.w3.org/2000/svg" xmlns:xlink="http://www.w3.org/1999/xlink" x="0px" y="0px"
	 viewBox="0 0 1024 1024" style="enable-background:new 0 0 1024 1024;" xml:space="preserve">
<style type="text/css">
	.st0{fill:#FFFC00;}
	.st1{fill:#FFFFFF;}
</style>
<rect y="0" class="st0" width="1024" height="1024"/>
<g>
	<g>
		<path class="st1" d="M857.1,687.5c-3-10-17.5-17-17.5-17l0,0c-1.3-0.8-2.6-1.4-3.6-1.9c-24.1-11.6-45.4-25.6-63.3-41.5
			c-14.4-12.8-26.8-26.8-36.7-41.8c-12.1-18.2-17.8-33.5-20.2-41.7c-1.4-5.4-1.1-7.5,0-10.3c1-2.3,3.7-4.6,5.1-5.6
			c8.1-5.7,21.2-14.2,29.2-19.4c6.9-4.5,12.9-8.4,16.4-10.8c11.3-7.9,19-15.9,23.6-24.6c5.9-11.2,6.6-23.6,2-35.7
			c-6.2-16.4-21.5-26.2-40.9-26.2c-4.3,0-8.8,0.5-13.2,1.4c-11.1,2.4-21.7,6.4-30.5,9.8c-0.6,0.3-1.3-0.2-1.3-0.9
			c0.9-21.9,2-51.3-0.4-79.3c-2.2-25.3-7.4-46.6-15.9-65.2c-8.6-18.7-19.6-32.5-28.4-42.4c-8.3-9.5-22.8-23.5-44.8-36.1
			c-30.9-17.7-66.1-26.7-104.6-26.7c-38.4,0-73.5,9-104.5,26.6c-23.2,13.3-38.1,28.3-44.9,36.1c-8.7,10-19.8,23.8-28.4,42.4
			c-8.5,18.6-13.7,39.9-15.9,65.2c-2.4,28-1.4,55.1-0.4,79.3c0,0.7-0.7,1.2-1.3,0.9c-8.8-3.4-19.4-7.4-30.5-9.8
			c-4.4-1-8.8-1.4-13.2-1.4c-19.4,0-34.7,9.8-40.9,26.2c-4.6,12.2-3.9,24.5,2,35.7c4.6,8.7,12.3,16.7,23.6,24.6
			c3.5,2.4,9.5,6.3,16.4,10.8c7.9,5.1,20.6,13.3,28.7,19.1c1,0.7,4.4,3.3,5.5,6c1.2,2.9,1.4,5-0.1,10.7c-2.5,8.3-8.2,23.4-20.1,41.3
			c-9.9,15-22.3,29-36.7,41.8c-18,15.9-39.3,29.9-63.3,41.5c-1.1,0.5-2.5,1.2-4,2.1l0,0c0,0-14.4,7.3-17.1,16.8
			c-4,14,6.6,27.1,17.6,34.2c17.8,11.5,39.5,17.7,52.1,21c3.5,0.9,6.7,1.8,9.6,2.7c1.8,0.6,6.3,2.3,8.3,4.8c2.4,3.1,2.7,7,3.6,11.4
			v0c1.4,7.4,4.5,16.5,13.6,22.8c10,6.9,22.8,7.4,38.9,8c16.9,0.6,37.9,1.5,61.9,9.4c11.1,3.7,21.2,9.9,32.9,17.1
			c24.4,15,54.8,33.7,106.7,33.7c51.9,0,82.5-18.8,107.1-33.8c11.6-7.1,21.6-13.3,32.5-16.9c24-7.9,45-8.7,61.9-9.4
			c16.1-0.6,28.9-1.1,38.9-8c9.8-6.7,12.6-16.8,13.9-24.4c0.7-3.7,1.2-7.1,3.3-9.9c1.8-2.4,6-4,8-4.7c3-0.9,6.2-1.8,9.9-2.8
			c12.6-3.4,28.3-7.3,47.5-18.2C857.9,711.5,859.5,695.4,857.1,687.5z"/>
	</g>
	<path d="M877,679.7c-5.1-13.9-14.8-21.3-25.9-27.5c-2.1-1.2-4-2.2-5.6-3c-3.3-1.7-6.7-3.4-10.1-5.1c-34.6-18.3-61.5-41.4-80.2-68.8
		c-6.3-9.2-10.7-17.6-13.8-24.4c-1.6-4.6-1.5-7.2-0.4-9.5c0.9-1.8,3.2-3.7,4.4-4.6c5.9-3.9,12.1-7.9,16.2-10.6
		c7.4-4.8,13.3-8.6,17-11.2c14.2-9.9,24.1-20.4,30.3-32.2c8.7-16.6,9.8-35.5,3.1-53.4c-9.4-24.7-32.7-40.1-61.1-40.1
		c-5.9,0-11.8,0.7-17.8,1.9c-1.6,0.3-3.1,0.7-4.6,1.1c0.3-16.8-0.1-34.8-1.6-52.3c-5.3-61.8-26.9-94.1-49.5-119.9
		c-9.4-10.8-25.8-26.5-50.3-40.6c-34.2-19.6-73-29.5-115.3-29.5c-42.2,0-80.9,9.9-115.2,29.5c-24.7,14.1-41,29.9-50.4,40.6
		c-22.6,25.8-44.2,58.2-49.5,119.9c-1.5,17.6-1.9,35.5-1.6,52.3c-1.5-0.4-3.1-0.7-4.6-1.1c-5.9-1.3-11.9-1.9-17.8-1.9
		c-28.3,0-51.7,15.4-61.1,40.1c-6.7,17.8-5.6,36.8,3.1,53.4c6.2,11.8,16.1,22.3,30.3,32.2c3.8,2.6,9.6,6.4,17,11.2
		c4,2.6,9.9,6.4,15.6,10.2c0.9,0.6,4,2.9,5,5c1.2,2.5,1.2,5.1-0.5,10c-3,6.7-7.4,14.9-13.5,23.9c-18.3,26.8-44.5,49.5-77.9,67.6
		c-17.7,9.4-36.1,15.7-43.9,36.8c-5.9,16-2,34.1,12.9,49.4l0,0c4.9,5.3,11.1,9.9,18.8,14.2c18.2,10.1,33.8,15,46,18.4
		c2.1,0.6,7.1,2.2,9.3,4.1c5.4,4.7,4.6,11.9,11.9,22.4c4.4,6.5,9.4,11,13.6,13.8c15.2,10.5,32.2,11.1,50.3,11.8
		c16.3,0.6,34.8,1.3,56,8.3c8.8,2.9,17.9,8.5,28.4,15C419.4,852.7,454,874,512,874c58,0,92.9-21.4,118.3-37
		c10.5-6.4,19.5-12,28-14.8c21.1-7,39.6-7.7,56-8.3c18.1-0.7,35.1-1.3,50.3-11.8c4.8-3.3,10.7-8.7,15.5-16.9
		c5.2-8.8,5.1-15.1,10-19.3c2-1.7,6.4-3.3,8.7-4c12.3-3.4,28-8.3,46.6-18.6c8.2-4.5,14.7-9.5,19.7-15.2c0.1-0.1,0.1-0.1,0.2-0.2
		C879.3,712.9,882.8,695.2,877,679.7z M825.5,707.3c-31.4,17.3-52.3,15.5-68.6,26c-13.8,8.9-5.6,28-15.7,35
		c-12.3,8.5-48.8-0.6-95.8,14.9c-38.8,12.8-63.6,49.7-133.4,49.7c-70,0-94.1-36.7-133.4-49.7c-47-15.5-83.5-6.4-95.8-14.9
		c-10-6.9-1.9-26.1-15.7-35c-16.2-10.5-37.2-8.6-68.6-26c-20-11.1-8.7-17.9-2-21.1c113.9-55.1,132-140.2,132.8-146.6
		c1-7.6,2.1-13.7-6.4-21.4c-8.1-7.5-44.2-29.9-54.2-36.8c-16.6-11.6-23.9-23.1-18.5-37.3c3.7-9.8,12.9-13.5,22.6-13.5
		c3,0,6.1,0.4,9,1c18.2,4,35.9,13.1,46.1,15.5c1.4,0.3,2.6,0.5,3.8,0.5c5.4,0,7.4-2.7,7-9c-1.2-19.9-4-58.7-0.9-94.9
		c4.3-49.8,20.4-74.6,39.5-96.4c9.2-10.5,52.2-56,134.6-56c82.6,0,125.5,45.5,134.6,56c19.1,21.9,35.2,46.6,39.5,96.4
		c3.1,36.2,0.4,75-0.9,94.9c-0.4,6.6,1.6,9,7,9c1.1,0,2.4-0.2,3.8-0.5c10.2-2.5,27.9-11.6,46.1-15.5c3-0.6,6-1,9-1
		c9.7,0,18.9,3.7,22.6,13.5c5.4,14.2-1.9,25.8-18.5,37.3c-10,7-46.1,29.3-54.2,36.8c-8.4,7.8-7.3,13.8-6.4,21.4
		c0.8,6.4,19,91.5,132.8,146.6C834.2,689.4,845.5,696.2,825.5,707.3z"/>
</g>
</svg>
